<svg id="7127a552-43d6-4b16-9df2-9f0fa9637ab8" data-name="Layer 1" xmlns="http://www.w3.org/2000/svg" xmlns:xlink="http://www.w3.org/1999/xlink" width="962.2" height="771.67" viewBox="0 0 962.2 771.67"><defs><linearGradient id="d20faab1-6ab6-432b-bba0-607013892761" x1="2028.19" y1="403.28" x2="2028.19" y2="402.78" gradientTransform="matrix(-1, 0, 0, 1, 2778, 0)" gradientUnits="userSpaceOnUse"><stop offset="0" stop-color="gray" stop-opacity="0.25"/><stop offset="0.54" stop-color="gray" stop-opacity="0.12"/><stop offset="1" stop-color="gray" stop-opacity="0.1"/></linearGradient><linearGradient id="cabf670e-bbb1-4872-bc54-c659c98b3878" x1="2192.47" y1="835.84" x2="2192.47" y2="175.81" xlink:href="#d20faab1-6ab6-432b-bba0-607013892761"/></defs><title>Jogging</title>

<path d="M854,522.26a10.88,10.88,0,0,0-14.2,1.32,11.13,11.13,0,0,0,.44,15.51l13.58,13.5a2.26,2.26,0,0,0,3.21,0L870.57,539a11.13,11.13,0,0,0,.36-15.51,10.92,10.92,0,0,0-14.22-1.24A2.28,2.28,0,0,1,854,522.26Z" transform="translate(-118.9 -64.16)" fill="#17a43b" opacity="0.3"/>

<path d="M262,214.26a10.88,10.88,0,0,0-14.2,1.32,11.13,11.13,0,0,0,.44,15.51l13.58,13.5a2.26,2.26,0,0,0,3.21,0L278.57,231a11.13,11.13,0,0,0,.36-15.51,10.92,10.92,0,0,0-14.22-1.24A2.28,2.28,0,0,1,262,214.26Z" transform="translate(-118.9 -64.16)" fill="#17a43b" opacity="0.3"/>

<path d="M136,489.26a10.88,10.88,0,0,0-14.2,1.32,11.13,11.13,0,0,0,.44,15.51l13.58,13.5a2.26,2.26,0,0,0,3.21,0L152.57,506a11.13,11.13,0,0,0,.36-15.51,10.92,10.92,0,0,0-14.22-1.24A2.28,2.28,0,0,1,136,489.26Z" transform="translate(-118.9 -64.16)" fill="#17a43b" opacity="0.3"/>

<path d="M853,187.26a10.88,10.88,0,0,0-14.2,1.32,11.13,11.13,0,0,0,.44,15.51l13.58,13.5a2.26,2.26,0,0,0,3.21,0L869.57,204a11.13,11.13,0,0,0,.36-15.51,10.92,10.92,0,0,0-14.22-1.24A2.28,2.28,0,0,1,853,187.26Z" transform="translate(-118.9 -64.16)" fill="#17a43b" opacity="0.3"/><rect x="651" y="73.92" width="3" height="17" fill="#3ad29f"/><rect x="769.9" y="138.08" width="3" height="17" transform="translate(799.08 -688.98) rotate(90)" fill="#3ad29f"/><rect x="783" y="304.92" width="3" height="17" fill="#3ad29f"/><rect x="901.9" y="369.08" width="3" height="17" transform="translate(1162.08 -589.98) rotate(90)" fill="#3ad29f"/><rect x="193" y="515.92" width="3" height="17" fill="#3ad29f"/><rect x="311.9" y="580.08" width="3" height="17" transform="translate(783.08 211.02) rotate(90)" fill="#3ad29f"/><rect x="124" y="73.92" width="3" height="17" fill="#3ad29f"/><rect x="242.9" y="138.08" width="3" height="17" transform="translate(272.08 -161.98) rotate(90)" fill="#3ad29f"/><rect x="256" y="100.92" width="3" height="17" fill="#3ad29f"/><rect x="374.9" y="165.08" width="3" height="17" transform="translate(431.08 -266.98) rotate(90)" fill="#3ad29f"/>

<path d="M312,351a3.67,3.67,0,0,1-2.05-4.44,1.86,1.86,0,0,0,.08-.41h0a1.84,1.84,0,0,0-3.31-1.22h0a1.82,1.82,0,0,0-.2.36,3.68,3.68,0,0,1-4.44,2.05,2,2,0,0,0-.41-.08h0a1.84,1.84,0,0,0-1.22,3.31h0a1.58,1.58,0,0,0,.36.2,3.69,3.69,0,0,1,2.05,4.45,1.35,1.35,0,0,0-.08.4h0a1.84,1.84,0,0,0,3.31,1.22h0a2.08,2.08,0,0,0,.2-.36,3.67,3.67,0,0,1,4.44-2,1.86,1.86,0,0,0,.41.08h0a1.85,1.85,0,0,0,1.22-3.32h0A2.08,2.08,0,0,0,312,351Z" transform="translate(-118.9 -64.16)" fill="#f55f44"/>

<path d="M879,71a3.67,3.67,0,0,1-2-4.44,1.86,1.86,0,0,0,.08-.41h0a1.84,1.84,0,0,0-3.31-1.22h0a1.82,1.82,0,0,0-.2.36,3.68,3.68,0,0,1-4.44,2,2,2,0,0,0-.41-.08h0a1.84,1.84,0,0,0-1.22,3.31h0a1.58,1.58,0,0,0,.36.2,3.69,3.69,0,0,1,2.05,4.45,1.35,1.35,0,0,0-.08.4h0a1.84,1.84,0,0,0,3.31,1.22h0a2.08,2.08,0,0,0,.2-.36,3.67,3.67,0,0,1,4.44-2,1.86,1.86,0,0,0,.41.08h0a1.85,1.85,0,0,0,1.22-3.32h0A2.08,2.08,0,0,0,879,71Z" transform="translate(-118.9 -64.16)" fill="#3ad29f"/>

<path d="M527,87a3.67,3.67,0,0,1-2-4.44,1.86,1.86,0,0,0,.08-.41h0a1.84,1.84,0,0,0-3.31-1.22h0a1.82,1.82,0,0,0-.2.36,3.68,3.68,0,0,1-4.44,2,2,2,0,0,0-.41-.08h0a1.84,1.84,0,0,0-1.22,3.31h0a1.58,1.58,0,0,0,.36.2,3.69,3.69,0,0,1,2.05,4.45,1.35,1.35,0,0,0-.08.4h0a1.84,1.84,0,0,0,3.31,1.22h0a2.08,2.08,0,0,0,.2-.36,3.67,3.67,0,0,1,4.44-2,1.86,1.86,0,0,0,.41.08h0a1.85,1.85,0,0,0,1.22-3.32h0A2.08,2.08,0,0,0,527,87Z" transform="translate(-118.9 -64.16)" fill="#f55f44"/>

<path d="M342,461a3.67,3.67,0,0,1-2.05-4.44,1.86,1.86,0,0,0,.08-.41h0a1.84,1.84,0,0,0-3.31-1.22h0a1.82,1.82,0,0,0-.2.36,3.68,3.68,0,0,1-4.44,2.05,2,2,0,0,0-.41-.08h0a1.84,1.84,0,0,0-1.22,3.31h0a1.58,1.58,0,0,0,.36.2,3.69,3.69,0,0,1,2.05,4.45,1.35,1.35,0,0,0-.08.4h0a1.84,1.84,0,0,0,3.31,1.22h0a2.08,2.08,0,0,0,.2-.36,3.67,3.67,0,0,1,4.44-2,1.86,1.86,0,0,0,.41.08h0a1.85,1.85,0,0,0,1.22-3.32h0A2.08,2.08,0,0,0,342,461Z" transform="translate(-118.9 -64.16)" fill="#f55f44"/>

<path d="M784,333a3.67,3.67,0,0,1-2-4.44,1.86,1.86,0,0,0,.08-.41h0a1.84,1.84,0,0,0-3.31-1.22h0a1.82,1.82,0,0,0-.2.36,3.68,3.68,0,0,1-4.44,2.05,2,2,0,0,0-.41-.08h0a1.84,1.84,0,0,0-1.22,3.31h0a1.58,1.58,0,0,0,.36.2,3.69,3.69,0,0,1,2.05,4.45,1.35,1.35,0,0,0-.08.4h0a1.84,1.84,0,0,0,3.31,1.22h0a2.08,2.08,0,0,0,.2-.36,3.67,3.67,0,0,1,4.44-2,1.86,1.86,0,0,0,.41.08h0a1.85,1.85,0,0,0,1.22-3.32h0A2.08,2.08,0,0,0,784,333Z" transform="translate(-118.9 -64.16)" fill="#f55f44"/>

<path d="M1080,229a3.67,3.67,0,0,1-2-4.44,1.86,1.86,0,0,0,.08-.41h0a1.84,1.84,0,0,0-3.31-1.22h0a1.82,1.82,0,0,0-.2.36,3.68,3.68,0,0,1-4.44,2.05,2,2,0,0,0-.41-.08h0a1.84,1.84,0,0,0-1.22,3.31h0a1.58,1.58,0,0,0,.36.2,3.69,3.69,0,0,1,2,4.45,1.35,1.35,0,0,0-.08.4h0a1.84,1.84,0,0,0,3.31,1.22h0a2.08,2.08,0,0,0,.2-.36,3.67,3.67,0,0,1,4.44-2,1.86,1.86,0,0,0,.41.08h0a1.85,1.85,0,0,0,1.22-3.32h0A2.08,2.08,0,0,0,1080,229Z" transform="translate(-118.9 -64.16)" fill="#f55f44"/>

<path d="M749.73,402.78l.16.5A2.66,2.66,0,0,1,749.73,402.78Z" transform="translate(-118.9 -64.16)" fill="url(#d20faab1-6ab6-432b-bba0-607013892761)"/>



<path d="M875.78,727.93c11.14-6.85-12.84-105.33-17.12-110.47-1.88-2.25-7.71-1.21-13.66.66,6.76-2.36,14.08-4.09,16.23-1.52,4.28,5.14,28.25,103.62,17.12,110.47a20.13,20.13,0,0,1-6.21,2.83A30.9,30.9,0,0,0,875.78,727.93Z" transform="translate(-118.9 -64.16)" fill="#fff" opacity="0.5"/>

<path d="M291.19,788c-1.15,2.95-.8,6.37,4,9.31,11.13,6.85,101.05,28.26,101.05,28.26a44.63,44.63,0,0,0,2.45-4.16,46.12,46.12,0,0,1-3.31,5.88S305.45,805.86,294.32,799C288.57,795.47,289.22,791.24,291.19,788Z" transform="translate(-118.9 -64.16)" fill="#fff" opacity="0.5"/><g opacity="0.05">


<path d="M745.46,402.89l.16.48A2.46,2.46,0,0,1,745.46,402.89Z" transform="translate(-118.9 -64.16)"/>

<path d="M583.21,287.89l1-1.41s1.09,1.28,5.69,2.23A51.79,51.79,0,0,1,583.21,287.89Z" transform="translate(-118.9 -64.16)"/>

<path d="M730.13,390.57a11.35,11.35,0,0,1-3.74-1A9.33,9.33,0,0,1,730.13,390.57Z" transform="translate(-118.9 -64.16)"/>


</g>


</svg>